<?xml version="1.0" encoding="utf-8"?>
<!-- Generator: Adobe Illustrator 27.0.0, SVG Export Plug-In . SVG Version: 6.00 Build 0)  -->
<svg version="1.1" id="Layer_1" xmlns="http://www.w3.org/2000/svg" xmlns:xlink="http://www.w3.org/1999/xlink" x="0px" y="0px"
	 viewBox="0 0 804 502" style="enable-background:new 0 0 804 502;" xml:space="preserve">
<style type="text/css">
	.st0{fill:#E15866;}
	.st1{fill:#C7515B;}
</style>
<g>
	<path class="st0" d="M403.1,84.1C189.3,84.1,16,69.3,16,51h0v334.7c0,57.2,46.3,103.5,103.5,103.5h567.3
		c57.2,0,103.5-46.3,103.5-103.5V51h0C790.3,69.3,617,84.1,403.1,84.1z"/>
	<path class="st1" d="M790.3,51c0-18.2-173.3-33-387.1-33S16,32.8,16,51c0,0,0,0,0,0L790.3,51C790.3,51,790.3,51,790.3,51z"/>
	<path class="st1" d="M403.1,84.1c213.8,0,387.1-14.8,387.1-33H16C16,69.3,189.3,84.1,403.1,84.1z"/>
</g>
</svg>
